<svg xmlns="http://www.w3.org/2000/svg" width="180" height="60" viewBox="0 0 180 60">
  <g id="Group_63" data-name="Group 63" transform="translate(-982 -20)">
    <g id="Filled_outline" data-name="Filled outline" transform="translate(979 18)">
      <path id="Path_2" data-name="Path 2" d="M12,37H44a2,2,0,0,1,2,2V61H10V39A2,2,0,0,1,12,37Z" fill="#198baf"/>
      <path id="Path_3" data-name="Path 3" d="M6,55h4v6H4V57a2,2,0,0,1,2-2Z" fill="#ffd782"/>
      <path id="Path_4" data-name="Path 4" d="M46,55h6v6H48a2,2,0,0,1-2-2Z" transform="translate(98 116) rotate(180)" fill="#ffd782"/>
      <path id="Path_5" data-name="Path 5" d="M6,55l4-13V55Z" fill="#eeb807"/>
      <path id="Path_6" data-name="Path 6" d="M50,55,46,42V55Z" fill="#eeb807"/>
      <path id="Path_7" data-name="Path 7" d="M14,41H24v4H14Z" fill="#e3f1f5"/>
      <path id="Path_8" data-name="Path 8" d="M37,33H19V16l12-3,6,3Z" fill="#ffd782"/>
      <path id="Path_9" data-name="Path 9" d="M19,26a4,4,0,0,1,0-8Z" fill="#f9bb4b"/>
      <path id="Path_10" data-name="Path 10" d="M37,18a4,4,0,0,1,0,8Z" fill="#f9bb4b"/>
      <path id="Path_11" data-name="Path 11" d="M37,16V13a4,4,0,0,0-4-4H23a4,4,0,0,0-4,4v3l12-3Z" fill="#394d5c"/>
      <path id="Path_12" data-name="Path 12" d="M28,3a4,4,0,0,1,4,4V9H24V7A4,4,0,0,1,28,3Z" fill="#143441"/>
      <g id="Group_3" data-name="Group 3">
        <circle id="Ellipse_1" data-name="Ellipse 1" cx="9" cy="9" r="9" transform="translate(43 3)" fill="#198baf"/>
        <circle id="Ellipse_2" data-name="Ellipse 2" cx="3" cy="3" r="3" transform="translate(47 24)" fill="#198baf"/>
        <circle id="Ellipse_3" data-name="Ellipse 3" cx="2" cy="2" r="2" transform="translate(41 30)" fill="#198baf"/>
      </g>
      <path id="Path_13" data-name="Path 13" d="M50.774,54.114,47,41.849V39a3,3,0,0,0-3-3H12a3,3,0,0,0-3,3v2.849L5.226,54.114A3,3,0,0,0,3,57v4a1,1,0,0,0,1,1H52a1,1,0,0,0,1-1V57A3,3,0,0,0,50.774,54.114ZM9,60H5V57a1,1,0,0,1,1-1H9Zm0-6H7.354L9,48.65Zm36,6H11V39a1,1,0,0,1,1-1H44a1,1,0,0,1,1,1Zm2-11.35L48.646,54H47ZM51,60H47V56h3a1,1,0,0,1,1,1Z"/>
      <path id="Path_14" data-name="Path 14" d="M24,40H14a1,1,0,0,0-1,1v4a1,1,0,0,0,1,1H24a1,1,0,0,0,1-1V41A1,1,0,0,0,24,40Zm-1,4H15V42h8Z"/>
      <path id="Path_15" data-name="Path 15" d="M41,56H39v2h3a1,1,0,0,0,1-1V54H41Z"/>
      <path id="Path_16" data-name="Path 16" d="M35,56h2v2H35Z"/>
      <path id="Path_17" data-name="Path 17" d="M22,18h2v2H22Z"/>
      <path id="Path_18" data-name="Path 18" d="M32,18h2v2H32Z"/>
      <path id="Path_19" data-name="Path 19" d="M27,21h2v4H27Z"/>
      <path id="Path_20" data-name="Path 20" d="M28,2a5.006,5.006,0,0,0-5,5V8a5.006,5.006,0,0,0-5,5v4.1a5,5,0,0,0,0,9.8V33a1,1,0,0,0,1,1H37a1,1,0,0,0,1-1V26.9a5,5,0,0,0,0-9.8V13a5.006,5.006,0,0,0-5-5V7a5.006,5.006,0,0,0-5-5ZM18,24.829a3,3,0,0,1,0-5.658Zm20-5.658a3,3,0,0,1,0,5.658ZM25,7a3,3,0,0,1,6,0V8H25ZM36,32H20V16.781L30.884,14.06,36,16.618Zm0-19v1.382L31.116,11.94,20,14.719V13a3,3,0,0,1,3-3H33a3,3,0,0,1,3,3Z"/>
      <path id="Path_21" data-name="Path 21" d="M52,2A10,10,0,1,0,62,12,10,10,0,0,0,52,2Zm0,18a8,8,0,1,1,8-8A8,8,0,0,1,52,20Z"/>
      <path id="Path_22" data-name="Path 22" d="M50,13.586l-2.293-2.293-1.414,1.414,3,3a1,1,0,0,0,1.414,0l6-6L55.293,8.293Z"/>
      <path id="Path_23" data-name="Path 23" d="M50,23a4,4,0,1,0,4,4A4,4,0,0,0,50,23Zm0,6a2,2,0,1,1,2-2A2,2,0,0,1,50,29Z"/>
      <path id="Path_24" data-name="Path 24" d="M43,35a3,3,0,1,0-3-3A3,3,0,0,0,43,35Zm0-4a1,1,0,1,1-1,1A1,1,0,0,1,43,31Z"/>
      <path id="Path_25" data-name="Path 25" d="M28,27.8l-2.445-1.63-1.11,1.664,3,2a1,1,0,0,0,1.11,0l3-2-1.11-1.664Z"/>
    </g>
    <text id="المُعَلّم" transform="translate(1059 61)" fill="#0f3a47" font-size="30" font-family="Cairo-Black, Cairo" font-weight="800"><tspan x="0" y="0">المُعَلّم</tspan></text>
  </g>
</svg>
