<svg xmlns="http://www.w3.org/2000/svg" width="449.052" height="152.543" viewBox="0 0 449.052 152.543">
  <g id="Group_21" data-name="Group 21" transform="translate(-982 -20)">
    <g id="Filled_outline" data-name="Filled outline" transform="translate(982 20)">
      <path id="Path_2" data-name="Path 2" d="M15.085,37H96.441a5.085,5.085,0,0,1,5.085,5.085V98.017H10V42.085A5.085,5.085,0,0,1,15.085,37Z" transform="translate(7.797 51.983)" fill="#198baf"/>
      <path id="Path_3" data-name="Path 3" d="M9.085,55h10.17V70.254H4V60.085A5.085,5.085,0,0,1,9.085,55Z" transform="translate(-1.458 79.746)" fill="#ffd782"/>
      <path id="Path_4" data-name="Path 4" d="M0,0H15.254V15.254H5.085A5.085,5.085,0,0,1,0,10.17Z" transform="translate(124.577 150.001) rotate(180)" fill="#ffd782"/>
      <path id="Path_5" data-name="Path 5" d="M6,75.051,16.17,42V75.051Z" transform="translate(1.627 59.695)" fill="#eeb807"/>
      <path id="Path_6" data-name="Path 6" d="M56.17,75.051,46,42V75.051Z" transform="translate(63.323 59.695)" fill="#eeb807"/>
      <path id="Path_7" data-name="Path 7" d="M14,41H39.424V51.17H14Z" transform="translate(13.966 58.153)" fill="#e3f1f5"/>
      <path id="Path_8" data-name="Path 8" d="M64.763,63.848H19V20.627L49.509,13l15.254,7.627Z" transform="translate(21.678 14.966)" fill="#ffd782"/>
      <path id="Path_9" data-name="Path 9" d="M25.17,38.339A10.17,10.17,0,0,1,25.17,18Z" transform="translate(15.509 22.678)" fill="#f9bb4b"/>
      <path id="Path_10" data-name="Path 10" d="M37,18a10.17,10.17,0,0,1,0,20.339Z" transform="translate(49.441 22.678)" fill="#f9bb4b"/>
      <path id="Path_11" data-name="Path 11" d="M64.763,26.8V19.17A10.17,10.17,0,0,0,54.593,9H29.17A10.17,10.17,0,0,0,19,19.17V26.8L49.509,19.17Z" transform="translate(21.678 8.797)" fill="#394d5c"/>
      <path id="Path_12" data-name="Path 12" d="M34.17,3a10.17,10.17,0,0,1,10.17,10.17v5.085H24V13.17A10.17,10.17,0,0,1,34.17,3Z" transform="translate(29.39 -0.458)" fill="#143441"/>
      <g id="Group_3" data-name="Group 3" transform="translate(96.873 2.306)">
        <circle id="Ellipse_1" data-name="Ellipse 1" cx="23.065" cy="23.065" r="23.065" transform="translate(4.613 0)" fill="#198baf"/>
        <circle id="Ellipse_2" data-name="Ellipse 2" cx="7.496" cy="7.496" r="7.496" transform="translate(14.992 54.203)" fill="#198baf"/>
        <circle id="Ellipse_3" data-name="Ellipse 3" cx="5.19" cy="5.19" r="5.19" transform="translate(0 69.195)" fill="#198baf"/>
      </g>
      <path id="Path_13" data-name="Path 13" d="M124.46,82.053,114.865,50.87V43.627A7.627,7.627,0,0,0,107.238,36H25.881a7.627,7.627,0,0,0-7.627,7.627V50.87L8.659,82.053A7.627,7.627,0,0,0,3,89.39V99.56A2.542,2.542,0,0,0,5.542,102.1H127.577a2.542,2.542,0,0,0,2.542-2.542V89.39A7.627,7.627,0,0,0,124.46,82.053ZM18.254,97.017H8.085V89.39a2.542,2.542,0,0,1,2.542-2.542h7.627Zm0-15.254H14.07l4.185-13.6ZM109.78,97.017H23.339V43.627a2.542,2.542,0,0,1,2.542-2.542h81.356a2.542,2.542,0,0,1,2.542,2.542Zm5.085-28.856,4.185,13.6h-4.185Zm10.17,28.856h-10.17V86.848h7.627a2.542,2.542,0,0,1,2.542,2.542Z" transform="translate(-3 50.441)"/>
      <path id="Path_14" data-name="Path 14" d="M40.966,40H15.542A2.542,2.542,0,0,0,13,42.542v10.17a2.542,2.542,0,0,0,2.542,2.542H40.966a2.542,2.542,0,0,0,2.542-2.542V42.542A2.542,2.542,0,0,0,40.966,40ZM38.424,50.17H18.085V45.085H38.424Z" transform="translate(12.424 56.611)"/>
      <path id="Path_15" data-name="Path 15" d="M44.085,59.085H39V64.17h7.627a2.542,2.542,0,0,0,2.542-2.542V54H44.085Z" transform="translate(52.526 78.204)"/>
      <path id="Path_16" data-name="Path 16" d="M35,56h5.085v5.085H35Z" transform="translate(46.356 81.289)"/>
      <path id="Path_17" data-name="Path 17" d="M22,18h5.085v5.085H22Z" transform="translate(26.305 22.678)"/>
      <path id="Path_18" data-name="Path 18" d="M32,18h5.085v5.085H32Z" transform="translate(41.729 22.678)"/>
      <path id="Path_19" data-name="Path 19" d="M27,21h5.085V31.17H27Z" transform="translate(34.017 27.305)"/>
      <path id="Path_20" data-name="Path 20" d="M49.6,2A12.727,12.727,0,0,0,36.889,14.712v2.542A12.727,12.727,0,0,0,24.177,29.966V40.39a12.712,12.712,0,0,0,0,24.915V80.814a2.542,2.542,0,0,0,2.542,2.542H72.483a2.542,2.542,0,0,0,2.542-2.542V65.305a12.712,12.712,0,0,0,0-24.915V29.966A12.727,12.727,0,0,0,62.313,17.254V14.712A12.727,12.727,0,0,0,49.6,2ZM24.177,60.04a7.627,7.627,0,0,1,0-14.385ZM75.025,45.655a7.627,7.627,0,0,1,0,14.385ZM41.974,14.712a7.627,7.627,0,0,1,15.254,0v2.542H41.974ZM69.94,78.272H29.262V39.579l27.671-6.918,13.007,6.5Zm0-48.305V33.48L57.523,27.271,29.262,34.337v-4.37a7.627,7.627,0,0,1,7.627-7.627H62.313a7.627,7.627,0,0,1,7.627,7.627Z" transform="translate(13.958 -2)"/>
      <path id="Path_21" data-name="Path 21" d="M67.424,2A25.424,25.424,0,1,0,92.848,27.424,25.424,25.424,0,0,0,67.424,2Zm0,45.763A20.339,20.339,0,1,1,87.763,27.424,20.339,20.339,0,0,1,67.424,47.763Z" transform="translate(57.153 -2)"/>
      <path id="Path_22" data-name="Path 22" d="M55.718,21.75l-5.83-5.83-3.595,3.595,7.627,7.627a2.542,2.542,0,0,0,3.595,0L72.769,11.888,69.174,8.293Z" transform="translate(63.774 7.706)"/>
      <path id="Path_23" data-name="Path 23" d="M56.17,23a10.17,10.17,0,1,0,10.17,10.17A10.17,10.17,0,0,0,56.17,23Zm0,15.254a5.085,5.085,0,1,1,5.085-5.085A5.085,5.085,0,0,1,56.17,38.254Z" transform="translate(63.323 30.39)"/>
      <path id="Path_24" data-name="Path 24" d="M47.627,44.254A7.627,7.627,0,1,0,40,36.627,7.627,7.627,0,0,0,47.627,44.254Zm0-10.17a2.542,2.542,0,1,1-2.542,2.542A2.542,2.542,0,0,1,47.627,34.085Z" transform="translate(54.068 39.644)"/>
      <path id="Path_25" data-name="Path 25" d="M33.483,30.314,27.267,26.17,24.445,30.4l7.627,5.085a2.542,2.542,0,0,0,2.822,0L42.521,30.4,39.7,26.17Z" transform="translate(30.076 35.279)"/>
    </g>
    <text id="المُعَلّم" transform="translate(1178.052 120.613)" fill="#fff" font-size="74" font-family="Cairo-Black, Cairo" font-weight="800"><tspan x="0" y="0">المُعَلّم</tspan></text>
  </g>
</svg>
